<svg id="visual" viewBox="0 0 960 300" width="960" height="300" xmlns="http://www.w3.org/2000/svg" xmlns:xlink="http://www.w3.org/1999/xlink" version="1.1"><rect x="0" y="0" width="960" height="300" fill="#FFFFFF"></rect><path d="M0 223L137 229L274 167L411 231L549 206L686 243L823 179L960 244L960 0L823 0L686 0L549 0L411 0L274 0L137 0L0 0Z" fill="#036c03"></path><path d="M0 207L137 175L274 180L411 185L549 174L686 158L823 183L960 180L960 0L823 0L686 0L549 0L411 0L274 0L137 0L0 0Z" fill="#037f03"></path><path d="M0 164L137 142L274 126L411 162L549 130L686 114L823 158L960 114L960 0L823 0L686 0L549 0L411 0L274 0L137 0L0 0Z" fill="#029203"></path><path d="M0 106L137 83L274 74L411 63L549 80L686 59L823 66L960 87L960 0L823 0L686 0L549 0L411 0L274 0L137 0L0 0Z" fill="#01a602"></path><path d="M0 59L137 54L274 73L411 43L549 35L686 36L823 60L960 31L960 0L823 0L686 0L549 0L411 0L274 0L137 0L0 0Z" fill="#00ba01"></path></svg>