<svg id="visual" viewBox="0 0 960 300" width="960" height="300" xmlns="http://www.w3.org/2000/svg" xmlns:xlink="http://www.w3.org/1999/xlink" version="1.1"><rect x="0" y="0" width="960" height="300" fill="#FFFFFF"></rect><path d="M0 219L26.7 212.7C53.3 206.3 106.7 193.7 160 195.3C213.3 197 266.7 213 320 218.5C373.3 224 426.7 219 480 212.5C533.3 206 586.7 198 640 200.5C693.3 203 746.7 216 800 216.5C853.3 217 906.7 205 933.3 199L960 193L960 0L933.3 0C906.7 0 853.3 0 800 0C746.7 0 693.3 0 640 0C586.7 0 533.3 0 480 0C426.7 0 373.3 0 320 0C266.7 0 213.3 0 160 0C106.7 0 53.3 0 26.7 0L0 0Z" fill="#ab470a"></path><path d="M0 168L26.7 165C53.3 162 106.7 156 160 159C213.3 162 266.7 174 320 173.8C373.3 173.7 426.7 161.3 480 162.3C533.3 163.3 586.7 177.7 640 180.5C693.3 183.3 746.7 174.7 800 168.7C853.3 162.7 906.7 159.3 933.3 157.7L960 156L960 0L933.3 0C906.7 0 853.3 0 800 0C746.7 0 693.3 0 640 0C586.7 0 533.3 0 480 0C426.7 0 373.3 0 320 0C266.7 0 213.3 0 160 0C106.7 0 53.3 0 26.7 0L0 0Z" fill="#bf4f0b"></path><path d="M0 157L26.7 149.3C53.3 141.7 106.7 126.3 160 124.8C213.3 123.3 266.7 135.7 320 139C373.3 142.3 426.7 136.7 480 132C533.3 127.3 586.7 123.7 640 118.7C693.3 113.7 746.7 107.3 800 107.7C853.3 108 906.7 115 933.3 118.5L960 122L960 0L933.3 0C906.7 0 853.3 0 800 0C746.7 0 693.3 0 640 0C586.7 0 533.3 0 480 0C426.7 0 373.3 0 320 0C266.7 0 213.3 0 160 0C106.7 0 53.3 0 26.7 0L0 0Z" fill="#d4580c"></path><path d="M0 81L26.7 79.8C53.3 78.7 106.7 76.3 160 81.7C213.3 87 266.7 100 320 105C373.3 110 426.7 107 480 103.7C533.3 100.3 586.7 96.7 640 91.5C693.3 86.3 746.7 79.7 800 79.7C853.3 79.7 906.7 86.3 933.3 89.7L960 93L960 0L933.3 0C906.7 0 853.3 0 800 0C746.7 0 693.3 0 640 0C586.7 0 533.3 0 480 0C426.7 0 373.3 0 320 0C266.7 0 213.3 0 160 0C106.7 0 53.3 0 26.7 0L0 0Z" fill="#e9610d"></path><path d="M0 43L26.7 44.5C53.3 46 106.7 49 160 52C213.3 55 266.7 58 320 56.7C373.3 55.3 426.7 49.7 480 44.7C533.3 39.7 586.7 35.3 640 35.5C693.3 35.7 746.7 40.3 800 46.5C853.3 52.7 906.7 60.3 933.3 64.2L960 68L960 0L933.3 0C906.7 0 853.3 0 800 0C746.7 0 693.3 0 640 0C586.7 0 533.3 0 480 0C426.7 0 373.3 0 320 0C266.7 0 213.3 0 160 0C106.7 0 53.3 0 26.7 0L0 0Z" fill="#ff6a0e"></path></svg>