<svg id="visual" viewBox="0 0 960 300" width="960" height="300" xmlns="http://www.w3.org/2000/svg" xmlns:xlink="http://www.w3.org/1999/xlink" version="1.1"><rect x="0" y="0" width="960" height="300" fill="#00ba01"></rect><path d="M0 183L10 177.5C20 172 40 161 60 151.2C80 141.3 100 132.7 120 140C140 147.3 160 170.7 180 180.3C200 190 220 186 240 171.5C260 157 280 132 300 122.5C320 113 340 119 360 128.8C380 138.7 400 152.3 420 153.5C440 154.7 460 143.3 480 146C500 148.7 520 165.3 540 169.8C560 174.3 580 166.7 600 154.8C620 143 640 127 660 129.7C680 132.3 700 153.7 720 164.8C740 176 760 177 780 167.7C800 158.3 820 138.7 840 128.3C860 118 880 117 900 121.2C920 125.3 940 134.7 950 139.3L960 144L960 0L950 0C940 0 920 0 900 0C880 0 860 0 840 0C820 0 800 0 780 0C760 0 740 0 720 0C700 0 680 0 660 0C640 0 620 0 600 0C580 0 560 0 540 0C520 0 500 0 480 0C460 0 440 0 420 0C400 0 380 0 360 0C340 0 320 0 300 0C280 0 260 0 240 0C220 0 200 0 180 0C160 0 140 0 120 0C100 0 80 0 60 0C40 0 20 0 10 0L0 0Z" fill="#FFFFFF" stroke-linecap="round" stroke-linejoin="miter"></path></svg>